<svg width="402" height="300" viewBox="0 0 402 300" fill="none" xmlns="http://www.w3.org/2000/svg">
<path fill-rule="evenodd" clip-rule="evenodd" d="M87.9562 42.0199C86.9207 18.6383 67.637 0 44 0C19.6995 0 0 19.6995 0 44C0 68.1888 19.5188 87.8188 43.6652 87.9987C57.8595 90.3894 79.5851 96.2491 90 107C100.127 117.454 103.607 133.734 104.36 144.344C104.123 146.196 104 148.084 104 150C104 174.301 123.699 194 148 194C172.301 194 192 174.301 192 150C192 129.148 177.496 111.685 158.026 107.147L158 107C157.854 107.014 157.705 107.027 157.555 107.04C154.478 106.359 151.281 106 148 106C145.299 106 142.655 106.243 140.088 106.709C127.061 105.297 111.576 101.076 101.5 91C90.2772 79.7772 87.1799 64.4312 87.0701 53.0416C87.6796 50.1235 88 47.0992 88 44C88 43.3916 87.9876 42.786 87.9632 42.1836C87.9754 42.1219 87.9877 42.0607 88 42L87.9562 42.0199Z" fill="url(#paint0_linear_4_2)"/>
<path fill-rule="evenodd" clip-rule="evenodd" d="M253 0C276.637 0 295.921 18.6383 296.956 42.0199L297 42C296.988 42.0607 296.975 42.1219 296.963 42.1836C296.988 42.786 297 43.3916 297 44C297 47.0992 296.68 50.1235 296.07 53.0416C296.18 64.4312 299.277 79.7772 310.5 91C320.576 101.076 336.061 105.297 349.088 106.709C351.655 106.243 354.299 106 357 106C360.281 106 363.478 106.359 366.555 107.04C366.705 107.027 366.854 107.014 367 107L367.026 107.147C375.402 109.099 382.86 113.444 388.638 119.422C396.486 127.252 401.4 138.036 401.556 149.996C401.872 174.295 382.43 194.249 358.132 194.565C356.216 194.59 354.326 194.492 352.471 194.278C341.872 195.17 325.639 198.86 315.318 209.123C304.703 219.677 299.126 241.477 296.921 255.701C297.055 279.848 277.68 299.62 253.493 299.935C229.195 300.251 209.241 280.809 208.925 256.511C208.617 232.876 227.003 213.351 250.37 212.012L250.349 211.968C250.41 211.98 250.471 211.991 250.533 212.003C251.135 211.97 251.741 211.95 252.349 211.942C255.448 211.902 258.476 212.183 261.402 212.754C272.789 212.496 288.093 209.2 299.169 197.832C308.77 187.978 312.849 173.153 314.237 160.402C313.428 157.067 313 153.584 313 150C313 148.084 313.123 146.196 313.36 144.344C312.607 133.734 309.127 117.454 299 107C288.585 96.2491 266.86 90.3894 252.665 87.9987C228.519 87.8188 209 68.1888 209 44C209 19.6995 228.699 0 253 0Z" fill="url(#paint1_linear_4_2)"/>
<ellipse cx="49.5" cy="257.5" rx="40.5" ry="42.5" fill="url(#paint2_linear_4_2)"/>
<defs>
<linearGradient id="paint0_linear_4_2" x1="40" y1="10.5" x2="148" y2="191" gradientUnits="userSpaceOnUse">
<stop stop-color="#2092FE"/>
<stop offset="1" stop-color="#69D7E8"/>
</linearGradient>
<linearGradient id="paint1_linear_4_2" x1="285" y1="278" x2="249" y2="14" gradientUnits="userSpaceOnUse">
<stop stop-color="#2092FE"/>
<stop offset="1" stop-color="#69D7E9"/>
</linearGradient>
<linearGradient id="paint2_linear_4_2" x1="60" y1="289" x2="32" y2="223" gradientUnits="userSpaceOnUse">
<stop stop-color="#2092FE"/>
<stop offset="1" stop-color="#69D7E8"/>
</linearGradient>
</defs>
</svg>
